HIERARCHY
ROOT ui
{
	 OFFSET 0 0 0
	 CHANNELS 3 XPosition YPosition Z Position
	 EndSite
	 {
	 OFFSET 0 -1 0
	 }
}
ROOT li
{
	 OFFSET 0 0 0
	 CHANNELS 3 XPosition YPosition Z Position
	 EndSite
	 {
	 OFFSET 0 -1 0
	 }
}
ROOT ul
{
	 OFFSET 0 0 0
	 CHANNELS 3 XPosition YPosition Z Position
	 EndSite
	 {
	 OFFSET 0 -1 0
	 }
}
ROOT ll
{
	 OFFSET 0 0 0
	 CHANNELS 3 XPosition YPosition Z Position
	 EndSite
	 {
	 OFFSET 0 -1 0
	 }
}
ROOT tt
{
	 OFFSET 0 0 0
	 CHANNELS 3 XPosition YPosition Z Position
	 EndSite
	 {
	 OFFSET 0 -1 0
	 }
}
ROOT tb
{
	 OFFSET 0 0 0
	 CHANNELS 3 XPosition YPosition Z Position
	 EndSite
	 {
	 OFFSET 0 -1 0
	 }
}
ROOT td
{
	 OFFSET 0 0 0
	 CHANNELS 3 XPosition YPosition Z Position
	 EndSite
	 {
	 OFFSET 0 -1 0
	 }
}
ROOT v
{
	 OFFSET 0 0 0
	 CHANNELS 3 XPosition YPosition Z Position
	 EndSite
	 {
	 OFFSET 0 -1 0
	 }
}
ROOT bn
{
	 OFFSET 0 0 0
	 CHANNELS 3 XPosition YPosition Z Position
	 EndSite
	 {
	 OFFSET 0 -1 0
	 }
}
MOTION
Frames: 18
Frame Time: 0.002
1.1572799831628799E-4	1.4402900636196136E-4	0		0.5119486694335937	-2.366078125	0		-0.9735614624023438	0.07733033752441407	0		-0.7182849731445312	-2.4177900390625	0		1.4960126953125	-0.492291015625	0		3.32475830078125	-0.09014860534667969	0		4.38392822265625	0.030160537719726564	0		5.6007001953125	0.1240696792602539	0		-0.2526437530517578	5.87228466796875	0		
0.00416417121887207	0.004163362979888916	0		0.512120361328125	-2.366011474609375	0		-0.9735344848632812	0.07730897521972656	0		-0.6531023559570313	-2.416072021484375	0		1.494111572265625	-0.48315765380859377	0		3.315744384765625	-0.10187704467773437	0		4.3789150390625	0.02246600341796875	0		5.58173291015625	0.12651834106445312	0		-0.2689981384277344	5.8633740234375	0		
-0.0028380260467529297	-0.002774599075317383	0		0.5082680358886719	-2.370931640625	0		-0.9735119018554688	0.07728330993652344	0		-0.656947509765625	-2.420061767578125	0		1.509134033203125	-0.49109860229492186	0		3.294757080078125	-0.10655875396728516	0		4.37893212890625	0.022748016357421876	0		5.5817568359375	0.12788411712646483	0		-0.2693210144042969	5.863390625	0		
-0.002816926956176758	-0.0027481870651245117	0		0.5334137573242187	-2.374977783203125	0		-0.9834913330078126	0.07829300689697266	0		-0.6587904052734375	-2.42206591796875	0		1.509184326171875	-0.4909819641113281	0		3.30477587890625	-0.10837679290771485	0		4.37894287109375	0.023023910522460937	0		5.5777373046875	0.12026025390625	0		-0.2846909790039063	5.853462890625	0		
-0.0028039538860321045	-0.0027294859886169433	0		0.47858392333984373	-2.370703857421875	0		-0.9734873046875	0.07721302032470703	0		-0.6946175537109375	-2.41793994140625	0		1.5092261962890625	-0.49087371826171877	0		3.311799072265625	-0.10719061279296875	0		4.3789453125	0.023290298461914063	0		5.58673486328125	0.11857296752929687	0		-0.2549438934326172	5.8733427734375	0		
-0.0028003199100494385	-0.0027197389602661133	0		0.5107379455566406	-2.3677939453125	0		-0.9734883422851562	0.07716593170166015	0		-0.7294522705078125	-2.412830810546875	0		1.4902745361328125	-0.48669943237304686	0		3.2988369140625	-0.09993482208251953	0		4.383970703125	0.03152482604980469	0		5.58176708984375	0.12792992401123046	0		-0.25528431701660154	5.873337890625	0		
2.0523400604724885E-4	2.685920000076294E-4	0		0.484884033203125	-2.36366162109375	0		-0.9734992065429687	0.07711014556884765	0		-0.6523319702148438	-2.41617626953125	0		1.5122960205078124	-0.4866999206542969	0		3.315832275390625	-0.10081129455566407	0		4.37892236328125	0.023786224365234376	0		5.59175341796875	0.1282126922607422	0		-0.2696726989746094	5.86237890625	0		
-0.0028227670192718505	-0.002729029893875122	0		0.5089739685058594	-2.37073681640625	0		-0.9775354614257813	0.07306135559082032	0		-0.7322071533203125	-2.414911376953125	0		1.4872957763671875	-0.4895264892578125	0		3.32179443359375	-0.10765637969970702	0		4.37889599609375	0.024013229370117187	0		5.58669873046875	0.12053910064697265	0		-0.2510362548828125	5.8582802734375	0		
-0.0028485069274902346	-0.0027478859424591062	0		0.49810195922851563	-2.364685302734375	0		-0.9775653686523438	0.07298871612548828	0		-0.658127197265625	-2.42225390625	0		1.5092928466796875	-0.4905474548339844	0		3.3117783203125	-0.1064534683227539	0		4.3788603515625	0.024225112915039062	0		5.577669921875	0.12186314392089843	0		-0.2713660888671875	5.86332421875	0		
-0.0028828959465026856	-0.0027753260135650634	0		0.5071636352539063	-2.372719970703125	0		-0.9735887451171875	0.07689398193359374	0		-0.732005126953125	-2.415036865234375	0		1.4902998046875	-0.4864222106933594	0		3.304745849609375	-0.10727710723876953	0		4.3838466796875	0.03240243530273437	0		5.59662158203125	0.1200624771118164	0		-0.28475958251953126	5.85133203125	0		
0.004101571083068848	0.004163832187652588	0		0.513270263671875	-2.365750732421875	0		-0.9686195068359374	0.08079059600830078	0		-0.6519266967773437	-2.416407470703125	0		1.494298095703125	-0.4823948974609375	0		3.3247802734375	-0.08821604156494141	0		4.3837958984375	0.03258349609375	0		5.590599609375	0.12733865356445312	0		-0.25602474975585937	5.87217431640625	0		
0.008065034866333008	0.007108914852142334	0		0.5133395385742188	-2.365765869140625	0		-0.9686708374023437	0.08070246887207032	0		-0.7248286743164063	-2.40921142578125	0		1.4942745361328125	-0.4823616027832031	0		3.298697021484375	-0.09899683380126953	0		4.3787099609375	0.024767776489257813	0		5.59155322265625	0.12957012939453125	0		-0.27239453125	5.86318017578125	0		
-0.003023550033569336	-0.002896054983139038	0		0.5093800354003907	-2.370772705078125	0		-0.977755615234375	0.07264453887939454	0		-0.6558084106445312	-2.420541259765625	0		1.5092159423828124	-0.4903915100097656	0		3.298649658203125	-0.0988879165649414	0		4.37864990234375	0.0249178466796875	0		5.58243701171875	0.11381907653808594	0		-0.2877569580078125	5.8531767578125	0		
-0.003079875946044922	-0.002946333885192871	0		0.5074207153320313	-2.372793212890625	0		-0.9778152465820312	0.07255137634277344	0		-0.6937509765625	-2.41848388671875	0		1.5091810302734374	-0.49037527465820313	0		3.3095400390625	-0.11483231353759765	0		4.37858544921875	0.025051528930664063	0		5.5923720703125	0.11297864532470703	0		-0.2880709228515625	5.85311376953125	0		
-0.003140481948852539	-0.003001199960708618	0		0.5094644165039063	-2.370834228515625	0		-0.9778789672851562	0.07245651245117188	0		-0.6557197875976563	-2.420701904296875	0		1.4871441650390624	-0.4892900390625	0		3.315537109375	-0.09977261352539063	0		4.3835458984375	0.03315048217773438	0		5.5813671875	0.13019230651855468	0		-0.27333645629882813	5.862994140625	0		
-1.9413100183010101E-4	-7.047100365161896E-5	0		0.48350790405273436	-2.3657822265625	0		-0.9739320068359375	0.07634671020507812	0		-0.7266600952148438	-2.4115361328125	0		1.49010888671875	-0.486302734375	0		3.3044521484375	-0.10666666412353516	0		4.38347509765625	0.03325076293945312	0		5.59626611328125	0.1212930908203125	0		-0.2726269226074219	5.86192138671875	0		
0.007763476848602295	0.006840350151062012	0		0.5135234985351562	-2.365930908203125	0		-0.9740012817382813	0.07625143432617187	0		-0.6516605834960938	-2.416883544921875	0		1.4900592041015626	-0.4863121337890625	0		3.30438916015625	-0.10661286926269531	0		4.3783740234375	0.02535258483886719	0		5.5812265625	0.13047879028320314	0		-0.28793246459960936	5.85190283203125	0		
-0.0033391709327697753	-0.003184551000595093	0		0.5005406494140625	-2.36293310546875	0		-0.97407177734375	0.07615754699707031	0		-0.6556658935546875	-2.420953369140625	0		1.51200634765625	-0.48640380859375	0		3.325341552734375	-0.10164372253417969	0		4.37830029296875	0.025421707153320313	0		5.586126953125	0.12257512664794921	0		-0.2891822204589844	5.852833984375	0		
